<svg width="207" height="37" viewBox="0 0 207 37" fill="none" xmlns="http://www.w3.org/2000/svg">
<path d="M31.1208 28.3591H41.8675L15.2458 1.21814H4.49902L31.1208 28.3591Z" fill="#FFFEFB"/>
<path d="M20.7666 1.21814L46.4295 27.3815V1.21814H39.4846V9.47841L31.3823 1.21814L20.7666 1.21814Z" fill="#FFFEFB"/>
<path d="M0 2.12674V28.359H6.94481V20.0987L15.047 28.359H25.7305L0 2.12674Z" fill="#FFFEFB"/>
<path d="M63.1887 24.278H69.4112V28.0164H58.4385V8.13513H63.1887V24.278Z" fill="#FFFEFB"/>
<path d="M77.8989 28.2431C76.3802 28.2431 75.0097 27.9127 73.7875 27.2517C72.5837 26.5909 71.63 25.6469 70.9262 24.4197C70.2411 23.1924 69.8984 21.7575 69.8984 20.1149C69.8984 18.4912 70.2502 17.0656 70.954 15.8385C71.6578 14.5923 72.6208 13.6388 73.843 12.978C75.0654 12.3172 76.4357 11.9868 77.9544 11.9868C79.473 11.9868 80.8434 12.3172 82.0657 12.978C83.288 13.6388 84.2509 14.5923 84.9547 15.8385C85.6585 17.0656 86.0103 18.4912 86.0103 20.1149C86.0103 21.7386 85.6493 23.1735 84.9269 24.4197C84.2232 25.6469 83.2509 26.5909 82.0101 27.2517C80.7878 27.9127 79.4173 28.2431 77.8989 28.2431ZM77.8989 24.0515C78.8063 24.0515 79.5749 23.7117 80.2045 23.032C80.8526 22.3523 81.1767 21.38 81.1767 20.1149C81.1767 18.8499 80.8619 17.8776 80.2323 17.1979C79.6211 16.5182 78.8618 16.1783 77.9544 16.1783C77.0284 16.1783 76.2598 16.5182 75.6487 17.1979C75.0375 17.8587 74.732 18.8311 74.732 20.1149C74.732 21.38 75.0283 22.3523 75.6209 23.032C76.2321 23.7117 76.9914 24.0515 77.8989 24.0515Z" fill="#FFFEFB"/>
<path d="M93.5866 11.9868C94.6793 11.9868 95.6331 12.2133 96.4479 12.6665C97.2813 13.1196 97.9202 13.7144 98.3647 14.4507V12.2133H103.115V27.9882C103.115 29.442 102.828 30.7541 102.254 31.9247C101.698 33.1142 100.837 34.0582 99.6703 34.7568C98.5221 35.4555 97.0868 35.8048 95.3645 35.8048C93.068 35.8048 91.2069 35.2477 89.7809 34.1337C88.3549 33.0387 87.5401 31.5472 87.3363 29.6591H92.031C92.1791 30.2633 92.5311 30.7352 93.0866 31.0751C93.6423 31.4338 94.3274 31.6132 95.1423 31.6132C96.1238 31.6132 96.9016 31.3206 97.4758 30.7352C98.0683 30.1688 98.3647 29.2532 98.3647 27.9882V25.7508C97.9016 26.4871 97.2627 27.0913 96.4479 27.5634C95.6331 28.0164 94.6793 28.2431 93.5866 28.2431C92.3089 28.2431 91.1513 27.9127 90.1143 27.2517C89.0771 26.572 88.253 25.6187 87.642 24.3914C87.0493 23.1453 86.7529 21.7104 86.7529 20.0866C86.7529 18.4629 87.0493 17.0374 87.642 15.8101C88.253 14.5829 89.0771 13.6388 90.1143 12.978C91.1513 12.3172 92.3089 11.9868 93.5866 11.9868ZM98.3647 20.1149C98.3647 18.9066 98.0313 17.9531 97.3646 17.2545C96.7165 16.5559 95.9201 16.2066 94.9757 16.2066C94.0311 16.2066 93.2256 16.5559 92.5589 17.2545C91.9106 17.9342 91.5865 18.8782 91.5865 20.0866C91.5865 21.295 91.9106 22.2578 92.5589 22.9754C93.2256 23.674 94.0311 24.0231 94.9757 24.0231C95.9201 24.0231 96.7165 23.674 97.3646 22.9754C98.0313 22.2767 98.3647 21.3232 98.3647 20.1149Z" fill="#FFFEFB"/>
<path d="M112.774 28.2431C111.255 28.2431 109.885 27.9127 108.662 27.2517C107.459 26.5909 106.505 25.6469 105.801 24.4197C105.116 23.1924 104.773 21.7575 104.773 20.1149C104.773 18.4912 105.125 17.0656 105.829 15.8385C106.533 14.5923 107.496 13.6388 108.718 12.978C109.94 12.3172 111.311 11.9868 112.829 11.9868C114.348 11.9868 115.718 12.3172 116.941 12.978C118.163 13.6388 119.126 14.5923 119.83 15.8385C120.534 17.0656 120.885 18.4912 120.885 20.1149C120.885 21.7386 120.524 23.1735 119.802 24.4197C119.098 25.6469 118.126 26.5909 116.885 27.2517C115.663 27.9127 114.292 28.2431 112.774 28.2431ZM112.774 24.0515C113.681 24.0515 114.45 23.7117 115.079 23.032C115.728 22.3523 116.052 21.38 116.052 20.1149C116.052 18.8499 115.737 17.8776 115.107 17.1979C114.496 16.5182 113.737 16.1783 112.829 16.1783C111.904 16.1783 111.135 16.5182 110.524 17.1979C109.913 17.8587 109.607 18.8311 109.607 20.1149C109.607 21.38 109.903 22.3523 110.496 23.032C111.107 23.7117 111.866 24.0515 112.774 24.0515Z" fill="#FFFEFB"/>
<path d="M124.961 10.5707C124.128 10.5707 123.443 10.3253 122.906 9.83437C122.387 9.32459 122.128 8.70154 122.128 7.96518C122.128 7.20996 122.387 6.58689 122.906 6.096C123.443 5.58622 124.128 5.33133 124.961 5.33133C125.776 5.33133 126.443 5.58622 126.962 6.096C127.499 6.58689 127.767 7.20996 127.767 7.96518C127.767 8.70154 127.499 9.32459 126.962 9.83437C126.443 10.3253 125.776 10.5707 124.961 10.5707ZM127.323 12.2133V28.0164H122.572V12.2133H127.323Z" fill="#FFFEFB"/>
<path d="M134.682 14.4507C135.145 13.7144 135.784 13.1196 136.598 12.6665C137.413 12.2133 138.367 11.9868 139.46 11.9868C140.738 11.9868 141.896 12.3172 142.932 12.978C143.97 13.6388 144.784 14.5829 145.377 15.8101C145.989 17.0374 146.294 18.4629 146.294 20.0866C146.294 21.7104 145.989 23.1453 145.377 24.3914C144.784 25.6187 143.97 26.572 142.932 27.2517C141.896 27.9127 140.738 28.2431 139.46 28.2431C138.386 28.2431 137.432 28.0164 136.598 27.5634C135.784 27.1102 135.145 26.5249 134.682 25.8074V35.5499H129.932V12.2133H134.682V14.4507ZM141.46 20.0866C141.46 18.8782 141.127 17.9342 140.46 17.2545C139.812 16.5559 139.006 16.2066 138.043 16.2066C137.098 16.2066 136.293 16.5559 135.627 17.2545C134.979 17.9531 134.655 18.9066 134.655 20.1148C134.655 21.3232 134.979 22.2767 135.627 22.9754C136.293 23.674 137.098 24.0231 138.043 24.0231C138.988 24.0231 139.793 23.674 140.46 22.9754C141.127 22.2578 141.46 21.295 141.46 20.0866Z" fill="#FFFEFB"/>
<path d="M154.258 28.2431C152.906 28.2431 151.703 28.0071 150.648 27.535C149.591 27.063 148.758 26.421 148.147 25.6092C147.536 24.7785 147.193 23.8532 147.119 22.8337H151.814C151.869 23.3813 152.119 23.825 152.564 24.1648C153.008 24.5047 153.555 24.6746 154.203 24.6746C154.796 24.6746 155.249 24.5613 155.564 24.3348C155.898 24.0893 156.065 23.7777 156.065 23.4002C156.065 22.947 155.832 22.6166 155.37 22.4088C154.906 22.1823 154.156 21.9369 153.119 21.6725C152.008 21.4082 151.082 21.1344 150.341 20.8513C149.6 20.5491 148.962 20.0866 148.424 19.4635C147.888 18.8216 147.619 17.9625 147.619 16.8863C147.619 15.98 147.86 15.1588 148.341 14.4223C148.841 13.6672 149.564 13.0724 150.508 12.6382C151.472 12.2039 152.61 11.9868 153.925 11.9868C155.87 11.9868 157.398 12.4777 158.508 13.4595C159.639 14.4412 160.286 15.7441 160.453 17.3678H156.065C155.989 16.8202 155.749 16.3859 155.341 16.065C154.953 15.7441 154.434 15.5836 153.786 15.5836C153.231 15.5836 152.805 15.6968 152.508 15.9234C152.212 16.131 152.064 16.4238 152.064 16.8013C152.064 17.2545 152.295 17.5943 152.758 17.8208C153.239 18.0475 153.981 18.274 154.981 18.5006C156.129 18.8027 157.065 19.1048 157.786 19.4069C158.508 19.69 159.139 20.1621 159.675 20.8229C160.231 21.4649 160.518 22.3333 160.537 23.4284C160.537 24.3537 160.277 25.1844 159.758 25.9207C159.258 26.6382 158.527 27.2046 157.565 27.62C156.62 28.0353 155.517 28.2431 154.258 28.2431Z" fill="#FFFEFB"/>
<path d="M177.915 12.2133V28.0164H173.165V25.8641C172.684 26.5627 172.026 27.1291 171.193 27.5634C170.378 27.9787 169.471 28.1863 168.471 28.1863C167.285 28.1863 166.238 27.9221 165.331 27.3934C164.424 26.8458 163.721 26.0623 163.221 25.0427C162.721 24.0231 162.471 22.8243 162.471 21.446V12.2133H167.193V20.7946C167.193 21.8519 167.462 22.6732 167.998 23.2585C168.536 23.8439 169.257 24.1365 170.165 24.1365C171.091 24.1365 171.822 23.8439 172.36 23.2585C172.897 22.6732 173.165 21.8519 173.165 20.7946V12.2133H177.915Z" fill="#FFFEFB"/>
<path d="M200.272 12.0434C202.198 12.0434 203.727 12.6382 204.856 13.8276C206.005 15.0171 206.579 16.6692 206.579 18.7838V28.0164H201.855V19.4351C201.855 18.4156 201.588 17.6322 201.05 17.0846C200.531 16.5182 199.81 16.2349 198.884 16.2349C197.957 16.2349 197.226 16.5182 196.689 17.0846C196.171 17.6322 195.912 18.4156 195.912 19.4351V28.0164H191.188V19.4351C191.188 18.4156 190.921 17.6322 190.383 17.0846C189.864 16.5182 189.142 16.2349 188.216 16.2349C187.29 16.2349 186.559 16.5182 186.021 17.0846C185.504 17.6322 185.244 18.4156 185.244 19.4351V28.0164H180.494V12.2134H185.244V14.1958C185.726 13.535 186.355 13.0158 187.133 12.6382C187.911 12.2417 188.79 12.0434 189.771 12.0434C190.938 12.0434 191.976 12.2983 192.883 12.8081C193.809 13.3179 194.531 14.0448 195.05 14.9888C195.588 14.1203 196.319 13.4123 197.245 12.8647C198.171 12.3172 199.181 12.0434 200.272 12.0434Z" fill="#FFFEFB"/>
</svg>
