<svg width="215" height="215" viewBox="0 0 215 215" fill="none" xmlns="http://www.w3.org/2000/svg">
<path d="M200.722 118.034C201.519 118.008 202.163 117.681 202.656 117.054C203.148 116.427 203.436 115.631 203.518 114.665C203.578 113.96 203.516 113.332 203.333 112.784C203.149 112.24 202.87 111.803 202.495 111.474C202.121 111.149 201.679 110.965 201.17 110.922C200.745 110.886 200.37 110.956 200.047 111.132C199.728 111.314 199.454 111.557 199.224 111.862C199 112.167 198.807 112.49 198.648 112.832C198.493 113.174 198.364 113.49 198.261 113.779L197.688 115.361C197.543 115.767 197.354 116.216 197.118 116.709C196.883 117.206 196.579 117.674 196.207 118.113C195.84 118.557 195.386 118.911 194.847 119.173C194.307 119.436 193.663 119.535 192.916 119.472C192.054 119.398 191.295 119.107 190.638 118.596C189.981 118.09 189.484 117.39 189.147 116.493C188.81 115.602 188.693 114.544 188.798 113.319C188.895 112.178 189.163 111.205 189.602 110.4C190.042 109.601 190.611 108.991 191.311 108.57C192.01 108.154 192.798 107.952 193.675 107.963L193.506 109.956C192.899 109.957 192.384 110.117 191.959 110.436C191.54 110.761 191.211 111.188 190.972 111.717C190.739 112.251 190.595 112.834 190.541 113.468C190.479 114.205 190.542 114.876 190.73 115.483C190.925 116.09 191.222 116.583 191.624 116.963C192.031 117.342 192.525 117.557 193.106 117.606C193.635 117.651 194.079 117.54 194.436 117.272C194.793 117.005 195.096 116.638 195.345 116.174C195.593 115.709 195.819 115.202 196.023 114.655L196.75 112.741C197.214 111.526 197.809 110.584 198.535 109.914C199.261 109.244 200.161 108.954 201.236 109.046C202.128 109.121 202.886 109.429 203.509 109.968C204.137 110.513 204.601 111.211 204.899 112.062C205.203 112.919 205.311 113.856 205.225 114.873C205.138 115.901 204.876 116.799 204.439 117.566C204.008 118.335 203.456 118.926 202.783 119.339C202.11 119.757 201.37 119.945 200.563 119.903L200.722 118.034Z" fill="#FFFEFB"/>
<path d="M195.292 138.007L195.813 136.141C196.38 136.181 196.906 136.119 197.389 135.957C197.871 135.799 198.305 135.563 198.69 135.249C199.078 134.941 199.409 134.571 199.681 134.139C199.953 133.707 200.161 133.235 200.303 132.723C200.564 131.79 200.564 130.879 200.304 129.99C200.042 129.105 199.515 128.312 198.722 127.609C197.927 126.911 196.862 126.376 195.528 126.004C194.193 125.631 193.006 125.538 191.964 125.723C190.922 125.913 190.059 126.319 189.378 126.939C188.695 127.565 188.223 128.345 187.963 129.278C187.82 129.79 187.753 130.301 187.762 130.812C187.77 131.322 187.859 131.809 188.027 132.273C188.199 132.742 188.45 133.169 188.781 133.554C189.115 133.944 189.533 134.269 190.034 134.528L189.513 136.394C188.764 136.034 188.131 135.581 187.612 135.036C187.094 134.492 186.694 133.882 186.411 133.209C186.134 132.536 185.978 131.825 185.944 131.075C185.909 130.33 186 129.568 186.217 128.791C186.584 127.476 187.231 126.397 188.159 125.553C189.087 124.709 190.224 124.158 191.572 123.902C192.92 123.646 194.407 123.744 196.032 124.198C197.657 124.652 198.98 125.337 200 126.255C201.02 127.172 201.708 128.232 202.065 129.435C202.421 130.637 202.416 131.896 202.049 133.21C201.832 133.988 201.515 134.686 201.099 135.305C200.682 135.93 200.178 136.457 199.587 136.887C199.002 137.318 198.346 137.633 197.62 137.83C196.9 138.029 196.123 138.088 195.292 138.007Z" fill="#FFFEFB"/>
<path d="M183.379 138.496L197.692 145.648L195.275 150.484C194.716 151.602 194.067 152.424 193.326 152.951C192.59 153.48 191.805 153.751 190.971 153.766C190.137 153.78 189.299 153.576 188.456 153.155C187.612 152.733 186.951 152.187 186.471 151.517C185.991 150.846 185.742 150.061 185.726 149.162C185.714 148.265 185.985 147.262 186.539 146.154L188.495 142.24L190.06 143.022L188.133 146.88C187.751 147.644 187.555 148.315 187.546 148.893C187.535 149.475 187.682 149.973 187.987 150.388C188.294 150.809 188.735 151.163 189.308 151.45C189.881 151.736 190.435 151.879 190.971 151.879C191.507 151.879 192.009 151.702 192.477 151.347C192.949 150.996 193.379 150.433 193.765 149.66L195.288 146.613L182.513 140.229L183.379 138.496ZM186.442 148.446L178.252 148.755L179.258 146.742L187.42 146.489L186.442 148.446Z" fill="#FFFEFB"/>
<path d="M174.983 166.942C173.64 165.919 172.665 164.793 172.056 163.564C171.447 162.334 171.199 161.095 171.313 159.846C171.426 158.597 171.896 157.429 172.722 156.344C173.549 155.258 174.55 154.494 175.724 154.053C176.898 153.611 178.158 153.521 179.505 153.781C180.853 154.04 182.197 154.681 183.54 155.704C184.883 156.726 185.858 157.852 186.467 159.081C187.076 160.311 187.323 161.55 187.21 162.799C187.097 164.049 186.627 165.216 185.8 166.302C184.974 167.387 183.973 168.151 182.799 168.592C181.625 169.034 180.364 169.125 179.017 168.865C177.67 168.605 176.325 167.964 174.983 166.942ZM176.119 165.45C177.221 166.289 178.292 166.813 179.331 167.022C180.367 167.235 181.318 167.176 182.184 166.847C183.046 166.522 183.771 165.974 184.358 165.204C184.945 164.433 185.282 163.586 185.369 162.664C185.453 161.746 185.256 160.814 184.778 159.868C184.298 158.925 183.506 158.035 182.404 157.195C181.302 156.356 180.233 155.83 179.197 155.617C178.158 155.409 177.207 155.467 176.344 155.792C175.478 156.121 174.751 156.671 174.165 157.442C173.578 158.212 173.242 159.057 173.159 159.975C173.072 160.897 173.268 161.83 173.749 162.772C174.227 163.718 175.016 164.611 176.119 165.45Z" fill="#FFFEFB"/>
<path d="M166.47 164.24L177.322 175.997L175.899 177.311L166.212 166.817L160.747 171.862L159.581 170.599L166.47 164.24Z" fill="#FFFEFB"/>
<path d="M156.954 172.721L165.838 186.028L164.226 187.104L156.297 175.227L150.111 179.356L149.157 177.927L156.954 172.721Z" fill="#FFFEFB"/>
<path d="M146.369 195.543L146.955 197.158L135.673 201.247L135.087 199.631L139.818 197.917L134.951 184.49L136.773 183.83L141.639 197.257L146.369 195.543Z" fill="#FFFEFB"/>
<path d="M114.98 197.192C114.715 195.526 114.787 194.037 115.195 192.728C115.604 191.418 116.281 190.351 117.225 189.525C118.17 188.7 119.316 188.18 120.663 187.965C122.011 187.751 123.262 187.889 124.416 188.381C125.57 188.872 126.544 189.677 127.339 190.795C128.134 191.913 128.665 193.305 128.93 194.972C129.195 196.638 129.124 198.126 128.715 199.436C128.306 200.746 127.63 201.813 126.685 202.639C125.741 203.464 124.595 203.984 123.247 204.198C121.9 204.413 120.649 204.275 119.495 203.783C118.341 203.292 117.366 202.487 116.571 201.369C115.776 200.251 115.246 198.859 114.98 197.192ZM116.832 196.897C117.05 198.266 117.463 199.384 118.07 200.252C118.673 201.121 119.401 201.736 120.254 202.096C121.103 202.457 122.006 202.561 122.962 202.408C123.919 202.256 124.747 201.876 125.447 201.269C126.141 200.663 126.643 199.853 126.951 198.839C127.253 197.825 127.296 196.635 127.078 195.266C126.86 193.898 126.45 192.779 125.848 191.91C125.24 191.042 124.512 190.427 123.664 190.067C122.81 189.707 121.905 189.603 120.948 189.755C119.991 189.908 119.166 190.287 118.471 190.893C117.771 191.5 117.27 192.31 116.967 193.324C116.659 194.338 116.614 195.529 116.832 196.897Z" fill="#FFFEFB"/>
<path d="M104.048 189.384L102.385 205.297L92.7811 204.294L92.9597 202.584L100.637 203.386L101.198 198.009L94.0187 197.259L94.1973 195.55L101.377 196.3L101.942 190.892L94.1407 190.077L94.3193 188.367L104.048 189.384Z" fill="#FFFEFB"/>
<path d="M85.3261 202.927L83.1712 195.398L83.051 195.364L77.2681 200.644L75.0732 200.023L82.0942 193.696L79.4335 184.628L81.6284 185.25L83.8174 192.658L83.9377 192.692L89.6865 187.532L91.8814 188.154L84.7401 194.446L87.521 203.548L85.3261 202.927Z" fill="#FFFEFB"/>
<path d="M76.7128 183.6L69.7207 197.991L64.858 195.629C63.729 195.08 62.9051 194.428 62.3864 193.672C61.8607 192.919 61.5918 192.114 61.5797 191.257C61.5676 190.4 61.7676 189.547 62.1795 188.699C62.5915 187.851 63.1392 187.165 63.8228 186.64C64.5016 186.113 65.2996 185.817 66.2166 185.753C67.1314 185.694 68.1486 185.936 69.2682 186.48L72.7536 188.174L72.0025 189.719L68.5733 188.053C67.8004 187.678 67.1148 187.51 66.5166 187.549C65.9184 187.589 65.4035 187.784 64.9719 188.136C64.5333 188.491 64.1741 188.956 63.8941 189.532C63.6142 190.108 63.4715 190.676 63.4662 191.235C63.4563 191.792 63.6253 192.314 63.9732 192.802C64.3189 193.294 64.883 193.73 65.6653 194.11L68.7291 195.599L74.9701 182.753L76.7128 183.6Z" fill="#FFFEFB"/>
<path d="M63.7561 176.936L54.4865 189.977L52.9073 188.855L61.1811 177.214L55.119 172.905L56.1147 171.504L63.7561 176.936Z" fill="#FFFEFB"/>
<path d="M38.4095 165.556C39.6157 164.376 40.8711 163.574 42.1759 163.15C43.4806 162.726 44.7428 162.661 45.9623 162.954C47.1819 163.247 48.2689 163.881 49.2232 164.857C50.1776 165.832 50.788 166.933 51.0545 168.158C51.3211 169.384 51.2282 170.644 50.7758 171.94C50.3234 173.235 49.4941 174.472 48.2879 175.653C47.0817 176.833 45.8263 177.635 44.5215 178.059C43.2168 178.483 41.9546 178.548 40.735 178.255C39.5154 177.962 38.4285 177.328 37.4742 176.352C36.5198 175.377 35.9094 174.277 35.6428 173.051C35.3763 171.825 35.4692 170.565 35.9216 169.27C36.374 167.974 37.2033 166.737 38.4095 165.556ZM39.7208 166.897C38.7305 167.866 38.0568 168.849 37.6998 169.847C37.339 170.841 37.2587 171.79 37.4588 172.695C37.6552 173.596 38.0922 174.392 38.7697 175.085C39.4472 175.777 40.2359 176.233 41.1359 176.453C42.0322 176.669 42.9831 176.61 43.9885 176.274C44.9903 175.935 45.9864 175.281 46.9766 174.312C47.9669 173.344 48.6424 172.362 49.0031 171.368C49.3602 170.37 49.4405 169.421 49.2441 168.52C49.044 167.615 48.6052 166.817 47.9277 166.124C47.2502 165.432 46.4633 164.978 45.567 164.762C44.667 164.542 43.7161 164.601 42.7143 164.94C41.7089 165.276 40.711 165.928 39.7208 166.897Z" fill="#FFFEFB"/>
<path d="M42.3443 157.684L29.0373 166.568L26.0355 162.072C25.3415 161.032 24.9493 160.06 24.8592 159.156C24.7647 158.255 24.918 157.439 25.3191 156.707C25.7202 155.976 26.3128 155.349 27.0968 154.825C27.8809 154.302 28.6831 153.998 29.5035 153.914C30.324 153.829 31.1287 154.003 31.9177 154.434C32.7024 154.869 33.4388 155.601 34.1271 156.632L36.5563 160.271L35.1009 161.243L32.7064 157.656C32.2321 156.945 31.7464 156.443 31.2493 156.149C30.7493 155.85 30.2436 155.73 29.7323 155.79C29.2137 155.848 28.6881 156.055 28.1553 156.411C27.6225 156.766 27.2233 157.177 26.9578 157.642C26.6923 158.108 26.5973 158.631 26.6728 159.213C26.744 159.798 27.0196 160.45 27.4997 161.169L29.391 164.002L41.2685 156.073L42.3443 157.684ZM32.1848 155.411L35.9763 148.146L37.2256 150.017L33.3994 157.231L32.1848 155.411Z" fill="#FFFEFB"/>
<path d="M34.4553 145.382L19.8139 151.834L15.9199 142.998L17.4927 142.305L20.6054 149.368L25.5526 147.188L22.6416 140.582L24.2144 139.889L27.1254 146.495L32.1012 144.302L28.9381 137.125L30.5109 136.432L34.4553 145.382Z" fill="#FFFEFB"/>
<path d="M23.8256 123.109C23.9366 123.729 23.8866 124.323 23.6759 124.89C23.46 125.457 23.1232 125.941 22.6655 126.34C22.2069 126.735 21.6674 126.987 21.0471 127.098C20.4216 127.21 19.828 127.16 19.2663 126.948C18.6986 126.732 18.2176 126.395 17.8234 125.937C17.4241 125.479 17.169 124.94 17.058 124.32C16.9461 123.694 16.9986 123.1 17.2154 122.537C17.4262 121.971 17.7609 121.49 18.2195 121.096C18.672 120.697 19.211 120.442 19.8365 120.33C20.4569 120.22 21.0509 120.272 21.6187 120.488C22.1855 120.699 22.6685 121.033 23.0678 121.491C23.4611 121.944 23.7137 122.484 23.8256 123.109Z" fill="#FFFEFB"/>
<path d="M13.6725 98.3597C12.8764 98.4013 12.2382 98.7404 11.758 99.377C11.2777 100.014 11.0058 100.815 10.9423 101.782C10.8959 102.489 10.9696 103.115 11.1635 103.66C11.3577 104.2 11.6452 104.631 12.0259 104.953C12.4069 105.271 12.8521 105.446 13.3614 105.48C13.7876 105.508 14.1607 105.43 14.4806 105.248C14.7957 105.06 15.0652 104.811 15.289 104.502C15.5077 104.193 15.6936 103.866 15.8467 103.521C15.9947 103.176 16.1173 102.858 16.2147 102.567L16.7578 100.974C16.8943 100.565 17.0754 100.113 17.3011 99.6158C17.5272 99.1139 17.8219 98.64 18.1852 98.1941C18.5437 97.7427 18.9903 97.3806 19.5249 97.1077C20.0596 96.8349 20.7011 96.7231 21.4495 96.7722C22.3122 96.8289 23.077 97.1061 23.7437 97.604C24.4107 98.0967 24.9212 98.7879 25.2751 99.6776C25.6294 100.562 25.7662 101.618 25.6857 102.844C25.6106 103.988 25.361 104.965 24.9371 105.778C24.5135 106.585 23.956 107.206 23.2645 107.641C22.5734 108.071 21.7893 108.288 20.912 108.293L21.0431 106.297C21.6494 106.285 22.1616 106.115 22.5798 105.788C22.9932 105.455 23.3139 105.022 23.542 104.488C23.7653 103.95 23.8978 103.364 23.9394 102.729C23.9879 101.991 23.9119 101.321 23.7114 100.718C23.5057 100.115 23.1984 99.6273 22.7896 99.256C22.3756 98.8843 21.8775 98.6794 21.2954 98.6411C20.7653 98.6063 20.3242 98.7261 19.9722 99.0005C19.6201 99.2749 19.3242 99.6469 19.0846 100.117C18.845 100.586 18.6288 101.097 18.436 101.648L17.7457 103.575C17.3052 104.799 16.7284 105.753 16.0154 106.437C15.3023 107.121 14.4079 107.427 13.3321 107.357C12.4382 107.298 11.6745 107.005 11.041 106.478C10.4027 105.946 9.92597 105.257 9.61091 104.411C9.29099 103.56 9.16448 102.625 9.23139 101.607C9.29897 100.578 9.54355 99.6752 9.96511 98.8991C10.3815 98.1226 10.9221 97.5214 11.5868 97.0953C12.2519 96.664 12.9881 96.4618 13.7954 96.4887L13.6725 98.3597Z" fill="#FFFEFB"/>
<path d="M18.8185 77.9496L18.3259 79.8234C17.7578 79.7925 17.2333 79.862 16.7525 80.0318C16.2729 80.1966 15.843 80.439 15.4627 80.7591C15.0787 81.0728 14.7539 81.4478 14.4884 81.8843C14.2229 82.3207 14.0226 82.7958 13.8875 83.3096C13.6413 84.2465 13.6549 85.1575 13.9284 86.0426C14.2033 86.9227 14.7428 87.708 15.5467 88.3986C16.352 89.0842 17.4246 89.6031 18.7645 89.9553C20.1044 90.3075 21.2935 90.3831 22.3318 90.1822C23.3715 89.9762 24.2274 89.5576 24.8995 88.9265C25.5729 88.2903 26.0328 87.5038 26.2791 86.5669C26.4141 86.0531 26.4734 85.5409 26.4568 85.0303C26.4402 84.5198 26.3444 84.0341 26.1693 83.5734C25.9905 83.1064 25.7328 82.6832 25.3963 82.304C25.0561 81.9183 24.6336 81.5999 24.1288 81.3488L24.6213 79.4749C25.3751 79.8238 26.0153 80.2668 26.5419 80.8037C27.0686 81.3407 27.4782 81.9438 27.7707 82.6131C28.0583 83.281 28.2247 83.9899 28.27 84.7395C28.3166 85.4842 28.2373 86.2469 28.032 87.0277C27.6851 88.3474 27.0542 89.4363 26.1393 90.2944C25.2245 91.1526 24.0952 91.72 22.7515 91.9969C21.4078 92.2738 19.9199 92.1977 18.2878 91.7687C16.6558 91.3397 15.3228 90.6743 14.2889 89.7724C13.2551 88.8706 12.5508 87.8211 12.1762 86.624C11.8015 85.427 11.7877 84.1686 12.1346 82.8488C12.3398 82.068 12.6458 81.3649 13.0526 80.7394C13.4606 80.1089 13.9566 79.5742 14.5405 79.1353C15.1194 78.6951 15.7701 78.3707 16.4927 78.1621C17.2102 77.9523 17.9855 77.8814 18.8185 77.9496Z" fill="#FFFEFB"/>
<path d="M30.5892 77.5648L16.1463 70.6797L18.4727 65.7996C19.0106 64.6713 19.6449 63.837 20.3756 63.2967C21.1015 62.7543 21.8812 62.4682 22.7147 62.4385C23.5482 62.4089 24.3904 62.5969 25.2413 63.0025C26.0923 63.4082 26.7639 63.9419 27.2563 64.6036C27.7486 65.2652 28.0114 66.0454 28.0446 66.944C28.0731 67.8404 27.8207 68.8481 27.2873 69.967L25.4046 73.9162L23.825 73.1632L25.6807 69.2704C26.0483 68.4993 26.2313 67.8249 26.2297 67.2472C26.2304 66.6648 26.0743 66.1692 25.7615 65.7604C25.4461 65.3447 24.9993 64.9989 24.421 64.7233C23.8428 64.4476 23.2858 64.3148 22.7502 64.3249C22.2145 64.335 21.716 64.5214 21.2546 64.8842C20.7884 65.2447 20.3693 65.8152 19.9973 66.5956L18.5315 69.6704L31.4229 75.8158L30.5892 77.5648ZM27.342 67.6736L35.5244 67.2122L34.5561 69.2432L26.4007 69.6482L27.342 67.6736Z" fill="#FFFEFB"/>
<path d="M38.401 49.0098C39.7621 50.0074 40.7581 51.1153 41.3892 52.3335C42.0203 53.5517 42.2906 54.7863 42.2001 56.0373C42.1097 57.2884 41.6611 58.4642 40.8543 59.5648C40.0476 60.6654 39.0613 61.4471 37.8955 61.9099C36.7296 62.3727 35.4709 62.4865 34.1193 62.2513C32.7677 62.016 31.4114 61.3996 30.0504 60.402C28.6894 59.4043 27.6933 58.2964 27.0622 57.0783C26.4311 55.8601 26.1608 54.6255 26.2513 53.3744C26.3417 52.1234 26.7903 50.9475 27.5971 49.847C28.4038 48.7464 29.3901 47.9647 30.5559 47.5019C31.7218 47.0391 32.9805 46.9253 34.3321 47.1605C35.6837 47.3957 37.04 48.0121 38.401 49.0098ZM37.2926 50.522C36.1752 49.703 35.0951 49.1986 34.0523 49.009C33.0127 48.8152 32.0629 48.8907 31.2031 49.2355C30.3464 49.5762 29.6316 50.1372 29.0589 50.9185C28.4862 51.6998 28.1648 52.5524 28.0947 53.4761C28.0277 54.3956 28.2415 55.3241 28.7362 56.2614C29.2339 57.1946 30.0415 58.0707 31.1589 58.8897C32.2762 59.7088 33.3548 60.2152 34.3945 60.4091C35.4372 60.5987 36.387 60.5232 37.2437 60.1825C38.1035 59.8377 38.8198 59.2746 39.3925 58.4932C39.9652 57.7119 40.2851 56.8615 40.3521 55.942C40.4222 55.0182 40.2084 54.0898 39.7106 53.1566C39.2159 52.2193 38.4099 51.3411 37.2926 50.522Z" fill="#FFFEFB"/>
<path d="M46.7902 51.6715L35.7258 40.1139L37.1254 38.774L47.0012 49.0901L52.3737 43.9469L53.5623 45.1884L46.7902 51.6715Z" fill="#FFFEFB"/>
<path d="M56.3967 42.7712L47.2707 29.6291L48.8621 28.524L57.0078 40.2544L63.1168 36.0122L64.0972 37.424L56.3967 42.7712Z" fill="#FFFEFB"/>
<path d="M66.0339 19.9492L65.418 18.3446L76.6212 14.0447L77.2371 15.6493L72.5399 17.4521L77.6572 30.7851L75.8483 31.4793L70.731 18.1464L66.0339 19.9492Z" fill="#FFFEFB"/>
<path d="M97.3791 17.5983C97.6762 19.2594 97.6331 20.7486 97.2496 22.0659C96.8662 23.3831 96.2102 24.4634 95.2817 25.3068C94.3532 26.1501 93.2173 26.6919 91.8741 26.9322C90.5308 27.1725 89.2775 27.058 88.1142 26.5888C86.9509 26.1197 85.9612 25.3338 85.1449 24.2311C84.3286 23.1284 83.7719 21.7465 83.4748 20.0854C83.1776 18.4243 83.2208 16.9351 83.6042 15.6178C83.9876 14.3005 84.6436 13.2202 85.5721 12.3769C86.5006 11.5336 87.6365 10.9918 88.9798 10.7515C90.323 10.5112 91.5763 10.6257 92.7396 11.0948C93.9029 11.564 94.8927 12.3499 95.709 13.4526C96.5252 14.5553 97.0819 15.9372 97.3791 17.5983ZM95.5334 17.9284C95.2894 16.5647 94.8554 15.4545 94.2313 14.5979C93.6123 13.7403 92.8726 13.1398 92.0122 12.7964C91.157 12.452 90.2525 12.3651 89.2989 12.5357C88.3453 12.7063 87.5245 13.1018 86.8366 13.7222C86.1537 14.3417 85.6681 15.1613 85.3796 16.1812C85.0962 17.2001 85.0765 18.3915 85.3205 19.7552C85.5644 21.119 85.9959 22.2297 86.6149 23.0872C87.239 23.9438 87.9787 24.5443 88.8339 24.8887C89.6943 25.2321 90.6013 25.3186 91.5549 25.148C92.5085 24.9774 93.3268 24.5824 94.0096 23.9629C94.6976 23.3425 95.1832 22.5228 95.4666 21.5039C95.755 20.484 95.7773 19.2922 95.5334 17.9284Z" fill="#FFFEFB"/>
<path d="M108.545 25.0743L109.901 9.13182L119.523 9.95016L119.377 11.6627L111.686 11.0086L111.228 16.3954L118.421 17.0072L118.275 18.7197L111.082 18.108L110.621 23.5259L118.437 24.1906L118.291 25.9032L108.545 25.0743Z" fill="#FFFEFB"/>
<path d="M127.115 11.1272L129.412 18.6135L129.533 18.6452L135.214 13.2564L137.421 13.8363L130.521 20.2944L133.353 29.3106L131.147 28.7307L128.818 21.3653L128.697 21.3336L123.047 26.6015L120.841 26.0216L127.861 19.5953L124.908 10.5473L127.115 11.1272Z" fill="#FFFEFB"/>
<path d="M136.486 30.3743L143.263 15.8806L148.16 18.1707C149.297 18.7024 150.131 19.3423 150.661 20.0903C151.198 20.8358 151.478 21.6369 151.503 22.4937C151.528 23.3505 151.341 24.2059 150.941 25.0599C150.542 25.9138 150.005 26.6083 149.329 27.1433C148.658 27.6805 147.865 27.9879 146.949 28.0656C146.035 28.1385 145.014 27.9113 143.886 27.384L140.376 25.7426L141.104 24.1856L144.558 25.8006C145.336 26.1646 146.024 26.3225 146.622 26.2742C147.22 26.2259 147.731 26.0225 148.158 25.6642C148.591 25.3033 148.943 24.8327 149.215 24.2524C149.486 23.6721 149.62 23.1024 149.617 22.5432C149.619 21.9863 149.442 21.4667 149.087 20.9844C148.734 20.4973 148.164 20.0696 147.376 19.7012L144.29 18.2583L138.241 31.195L136.486 30.3743Z" fill="#FFFEFB"/>
<path d="M149.578 36.8148L158.656 23.6393L160.252 24.7386L152.149 36.4987L158.273 40.7185L157.298 42.1339L149.578 36.8148Z" fill="#FFFEFB"/>
<path d="M174.993 47.6284C173.809 48.8303 172.568 49.6551 171.271 50.1028C169.975 50.5505 168.714 50.6388 167.489 50.3678C166.264 50.0968 165.166 49.4824 164.194 48.5245C163.222 47.5667 162.592 46.4774 162.303 45.2568C162.014 44.0361 162.084 42.7742 162.513 41.471C162.942 40.1678 163.749 38.9153 164.933 37.7134C166.118 36.5115 167.359 35.6867 168.655 35.239C169.952 34.7913 171.213 34.703 172.438 34.974C173.662 35.245 174.761 35.8594 175.733 36.8173C176.704 37.7752 177.335 38.8644 177.624 40.0851C177.912 41.3057 177.842 42.5676 177.413 43.8708C176.985 45.174 176.178 46.4266 174.993 47.6284ZM173.658 46.3123C174.631 45.3255 175.286 44.3301 175.625 43.3258C175.968 42.3253 176.031 41.3746 175.814 40.4739C175.602 39.5768 175.15 38.7882 174.46 38.1082C173.77 37.4282 172.973 36.9865 172.07 36.7832C171.17 36.5834 170.22 36.6603 169.221 37.0138C168.225 37.3709 167.241 38.0428 166.269 39.0295C165.296 40.0163 164.639 41.0099 164.296 42.0105C163.957 43.0147 163.894 43.9654 164.107 44.8625C164.323 45.7632 164.777 46.5536 165.467 47.2336C166.156 47.9136 166.952 48.3535 167.852 48.5532C168.755 48.7565 169.705 48.6797 170.701 48.3226C171.7 47.9691 172.686 47.299 173.658 46.3123Z" fill="#FFFEFB"/>
<path d="M171.169 55.4758L184.311 46.3498L187.395 50.7904C188.108 51.8171 188.518 52.7817 188.624 53.6841C188.735 54.5836 188.597 55.4025 188.209 56.1409C187.822 56.8793 187.241 57.5174 186.466 58.0551C185.692 58.5928 184.895 58.9113 184.077 59.0106C183.258 59.1099 182.45 58.9512 181.653 58.5343C180.861 58.1144 180.111 57.3954 179.404 56.3772L176.909 52.7837L178.346 51.7855L180.806 55.3277C181.293 56.0293 181.788 56.5227 182.29 56.808C182.796 57.0974 183.304 57.2077 183.814 57.1388C184.331 57.0712 184.853 56.8547 185.379 56.4893C185.905 56.1239 186.297 55.7062 186.554 55.2361C186.811 54.766 186.896 54.2406 186.81 53.66C186.728 53.0764 186.441 52.4296 185.947 51.7194L184.005 48.9216L172.274 57.0672L171.169 55.4758ZM181.368 57.5623L177.711 64.8961L176.427 63.0479L180.121 55.7655L181.368 57.5623Z" fill="#FFFEFB"/>
<path d="M179.397 67.7839L193.916 61.0603L197.974 69.8226L196.414 70.5449L193.17 63.5407L188.265 65.8125L191.298 72.363L189.739 73.0852L186.705 66.5348L181.771 68.8198L185.067 75.9373L183.508 76.6596L179.397 67.7839Z" fill="#FFFEFB"/>
<path d="M190.434 89.783C190.311 89.1649 190.35 88.5705 190.55 87.9997C190.755 87.428 191.082 86.9381 191.532 86.5301C191.983 86.1272 192.518 85.8644 193.136 85.7416C193.759 85.6178 194.354 85.6563 194.919 85.8572C195.491 86.0623 195.978 86.3902 196.381 86.8412C196.789 87.2912 197.055 87.8252 197.177 88.4433C197.301 89.0666 197.26 89.6615 197.054 90.2281C196.854 90.7989 196.529 91.2857 196.078 91.6886C195.633 92.0956 195.099 92.361 194.476 92.4848C193.858 92.6076 193.263 92.5665 192.691 92.3615C192.12 92.1615 191.631 91.8366 191.223 91.3867C190.821 90.9408 190.558 90.4062 190.434 89.783Z" fill="#FFFEFB"/>
</svg>
